<svg xmlns="http://www.w3.org/2000/svg" width="395" height="444" viewBox="0 0 395 444"><rect width="100%" height="100%" fill="#ecf2f2"/><path fill="#212529" d="m83.14 214.13-3.45-.61q.4-2.76 1.54-4.84t2.85-3.47 3.92-2.09 4.76-.7q2.65 0 4.78.75 2.13.76 3.64 2.1 1.51 1.33 2.32 3.14.81 1.8.81 3.89 0 1.83-.41 3.22t-1.18 2.43q-.77 1.03-1.91 1.75-1.14.71-2.57 1.19 3.45 1.08 5.14 3.31 1.7 2.23 1.7 5.59 0 2.86-1.06 5.06t-2.86 3.7-4.18 2.27q-2.37.76-5.02.76-2.89 0-5.03-.66-2.15-.66-3.74-1.96t-2.7-3.18q-1.12-1.88-1.91-4.35l2.89-1.19q1.14-.47 2.13-.25 1 .23 1.45 1.07.47.93 1.04 1.83t1.37 1.61q.79.7 1.87 1.13 1.07.44 2.55.44 1.67 0 2.92-.54 1.24-.54 2.08-1.42.83-.87 1.24-1.95.41-1.07.41-2.16 0-1.37-.29-2.5t-1.22-1.92q-.92-.8-2.66-1.25t-4.65-.45v-4.66q2.41-.03 4-.45 1.59-.43 2.53-1.18.94-.76 1.31-1.82t.37-2.33q0-2.7-1.51-4.11-1.51-1.4-4.02-1.4-1.17 0-2.15.33t-1.76.93q-.78.59-1.31 1.39-.53.79-.8 1.75-.45 1.22-1.18 1.61-.73.4-2.05.19m33.18.21q0 3.21 1.65 4.89 1.66 1.68 4.71 1.68 1.59 0 2.83-.5 1.25-.5 2.09-1.38.85-.87 1.29-2.06.44-1.2.44-2.58 0-1.56-.48-2.79t-1.35-2.08q-.88-.85-2.08-1.3-1.21-.45-2.64-.45-1.48 0-2.67.49-1.2.49-2.05 1.36-.84.88-1.29 2.09-.45 1.2-.45 2.63m-3.21 26.82 11.9-14.87q.45-.55.85-1.08.39-.53.76-1.06-1.32.85-2.91 1.28-1.59.44-3.34.44-1.99 0-3.9-.69-1.9-.69-3.39-2.08-1.48-1.39-2.4-3.44-.91-2.06-.91-4.81 0-2.57.95-4.83.96-2.25 2.68-3.95 1.72-1.69 4.13-2.67 2.42-.98 5.33-.98 2.94 0 5.29.92 2.34.93 4 2.6t2.54 4q.89 2.34.89 5.12 0 1.77-.3 3.36-.31 1.59-.86 3.06-.56 1.47-1.36 2.88-.79 1.4-1.77 2.78l-8.77 12.51q-.45.64-1.35 1.07-.91.44-2.05.44zm37.31-32.38-1.35 7.97q1.27-.26 2.44-.38 1.16-.12 2.25-.12 3.02 0 5.33.9 2.3.9 3.87 2.49 1.56 1.59 2.35 3.73.8 2.13.8 4.59 0 3.05-1.07 5.57-1.08 2.52-2.99 4.3-1.9 1.79-4.51 2.77t-5.69.98q-1.8 0-3.42-.37-1.61-.37-3.03-.99t-2.62-1.43q-1.21-.81-2.16-1.71l2.01-2.78q.64-.9 1.67-.9.66 0 1.35.42t1.58.93q.89.5 2.09.92 1.21.43 2.9.43 1.81 0 3.18-.58 1.38-.59 2.3-1.63.91-1.05 1.37-2.5.47-1.44.47-3.14 0-3.12-1.82-4.88-1.81-1.77-5.36-1.77-2.73 0-5.6 1.01l-4.08-1.17 3.18-18.6h18.92v2.78q0 1.41-.87 2.28-.87.88-2.97.88zm59.39 23.61-3.47 3.42-8.99-8.99-9.06 9.04-3.47-3.42 9.06-9.09-8.64-8.64 3.45-3.44 8.64 8.64 8.58-8.59 3.5 3.45-8.61 8.61zm22.95-5.67h11.66v-12.54q0-1.77.24-3.92zm17.35 0h4.83v3.79q0 .53-.35.91-.34.39-.98.39h-3.5v9.35h-5.69v-9.35h-16.17q-.66 0-1.16-.42-.51-.41-.64-1.02l-.69-3.31 18.15-24.25h6.2zm13.39 0h11.66v-12.54q0-1.77.24-3.92zm17.35 0h4.83v3.79q0 .53-.35.91-.34.39-.98.39h-3.5v9.35h-5.69v-9.35h-16.17q-.66 0-1.16-.42-.51-.41-.64-1.02l-.69-3.31 18.15-24.25h6.2zm13.39 0h11.66v-12.54q0-1.77.24-3.92zm17.35 0h4.83v3.79q0 .53-.35.91-.34.39-.98.39h-3.5v9.35h-5.69v-9.35h-16.17q-.66 0-1.16-.42-.51-.41-.64-1.02l-.69-3.31 18.15-24.25h6.2z"/></svg>