<svg xmlns="http://www.w3.org/2000/svg" width="112" height="112" viewBox="0 0 112 112"><rect width="100%" height="100%" fill="#ecf2f2"/><path fill="#212529" d="M27.575 60.09h1.95v1.39h-6v-1.39h2.2v-6.32q0-.37.02-.77l-1.56 1.3q-.14.11-.27.13-.13.03-.25.01-.11-.02-.2-.08t-.14-.13l-.58-.8 3.31-2.81h1.52zm8.7 0h1.95v1.39h-6v-1.39h2.2v-6.32q0-.37.02-.77l-1.56 1.3q-.14.11-.27.13-.13.03-.25.01-.11-.02-.2-.08t-.14-.13l-.58-.8 3.3-2.81h1.53zm7.46-.33h2.78q.3 0 .48.16.17.17.17.45v1.11h-7.44v-.61q0-.19.08-.4.08-.2.26-.37l3.29-3.3q.41-.42.74-.8.32-.39.54-.76t.33-.76q.12-.39.12-.81 0-.4-.11-.69-.12-.3-.32-.5-.21-.2-.5-.3-.28-.1-.65-.1-.33 0-.61.09t-.5.26q-.21.17-.36.4-.15.22-.23.49-.13.35-.33.46t-.58.05l-.98-.17q.11-.78.44-1.37.32-.59.8-.98.49-.4 1.11-.6.63-.19 1.35-.19.75 0 1.37.22t1.07.62q.44.41.69.98.24.57.24 1.26 0 .61-.17 1.12-.18.51-.47.97-.3.46-.7.9l-.83.89-2.44 2.49q.35-.1.7-.16.34-.05.66-.05m15.66-.76-.98.97-2.55-2.55-2.56 2.56-.98-.97 2.56-2.57-2.44-2.44.97-.98 2.45 2.45 2.43-2.44.99.98-2.44 2.44zm10.27 1.09h1.95v1.39h-6v-1.39h2.19v-6.32q0-.37.03-.77l-1.56 1.3q-.14.11-.27.13-.13.03-.25.01-.11-.02-.2-.08t-.14-.13l-.58-.8 3.3-2.81h1.53zm8.7 0h1.95v1.39h-6v-1.39h2.19v-6.32q0-.37.03-.77l-1.56 1.3q-.14.11-.27.13-.13.03-.25.01-.11-.02-.2-.08t-.14-.13l-.58-.8 3.3-2.81h1.53zm7.46-.33h2.78q.3 0 .48.16.17.17.17.45v1.11h-7.44v-.61q0-.19.08-.4.08-.2.25-.37l3.3-3.3q.41-.42.74-.8.32-.39.54-.76t.33-.76q.12-.39.12-.81 0-.4-.11-.69-.12-.3-.32-.5-.21-.2-.5-.3t-.65-.1q-.33 0-.61.09t-.5.26q-.21.17-.36.4-.15.22-.23.49-.13.35-.33.46t-.58.05l-.98-.17q.11-.78.44-1.37.32-.59.8-.98.49-.4 1.11-.6.63-.19 1.35-.19.75 0 1.37.22t1.07.62q.44.41.69.98.24.57.24 1.26 0 .61-.17 1.12-.18.51-.47.97-.3.46-.7.9l-.83.89-2.45 2.49q.36-.1.71-.16.34-.05.66-.05"/></svg>