<svg xmlns="http://www.w3.org/2000/svg" width="90" height="20" viewBox="0 0 90 20"><rect width="100%" height="100%" fill="#ecf2f2"/><path fill="#212529" d="M29.64 8.555q0 .6.31.92.32.32.89.32.3 0 .54-.1.23-.09.39-.25.16-.17.24-.4.09-.22.09-.48 0-.29-.09-.53-.09-.23-.26-.39-.16-.16-.39-.24-.23-.09-.5-.09-.28 0-.5.09-.23.09-.39.26-.16.16-.25.39-.08.23-.08.5m-.6 5.06 2.24-2.81q.09-.1.16-.2.08-.1.15-.2-.25.16-.55.24t-.64.08q-.37 0-.73-.13t-.64-.39-.45-.65q-.18-.39-.18-.9 0-.49.18-.92.18-.42.51-.74t.78-.51q.46-.18 1.01-.18t.99.18q.44.17.76.48.31.32.48.76t.17.97q0 .33-.06.63t-.16.58q-.11.27-.26.54-.15.26-.33.52l-1.66 2.36q-.09.12-.26.21-.17.08-.38.08zm10.3-3.62q0 .95-.2 1.65-.2.69-.56 1.15t-.85.68q-.48.22-1.05.22-.56 0-1.05-.22-.48-.22-.83-.68-.36-.46-.56-1.15-.2-.7-.2-1.65t.2-1.64q.2-.7.56-1.15.35-.46.83-.68.49-.22 1.05-.22.57 0 1.05.22.49.22.85.68.36.45.56 1.15.2.69.2 1.64m-1.27 0q0-.78-.12-1.3-.11-.51-.31-.82-.19-.3-.44-.42-.25-.13-.52-.13-.26 0-.51.13-.25.12-.44.42-.19.31-.3.82-.11.52-.11 1.3 0 .79.11 1.31.11.51.3.81.19.31.44.43t.51.12q.27 0 .52-.12t.44-.43q.2-.3.31-.81.12-.52.12-1.31m9.21 1.96-.65.65-1.7-1.7-1.71 1.71-.65-.65 1.71-1.71-1.63-1.63.65-.65 1.63 1.63 1.62-1.62.66.65-1.63 1.63zm6.02.51h1.86q.2 0 .31.11.12.11.12.3v.74h-4.96v-.41q0-.13.05-.26.06-.14.17-.25l2.2-2.2q.27-.28.49-.54.22-.25.36-.5.15-.25.22-.51.08-.25.08-.54 0-.26-.07-.46-.08-.2-.22-.33-.13-.13-.33-.2-.19-.07-.43-.07-.22 0-.41.06-.18.06-.33.18-.14.11-.24.26t-.15.33q-.09.23-.22.31-.14.07-.39.03l-.65-.11q.07-.53.29-.92.21-.39.53-.65.33-.26.74-.4.42-.13.9-.13.5 0 .92.15.41.14.71.41.29.27.46.66.16.38.16.84 0 .4-.12.74-.11.34-.31.65t-.46.6q-.27.29-.56.59l-1.63 1.66q.24-.06.47-.1t.44-.04m8.3-2.47q0 .95-.2 1.65-.2.69-.56 1.15t-.85.68q-.48.22-1.05.22-.56 0-1.05-.22-.48-.22-.83-.68-.36-.46-.56-1.15-.2-.7-.2-1.65t.2-1.64q.2-.7.56-1.15.35-.46.83-.68.49-.22 1.05-.22.57 0 1.05.22.49.22.85.68.36.45.56 1.15.2.69.2 1.64m-1.27 0q0-.78-.12-1.3-.11-.51-.31-.82-.19-.3-.44-.42-.25-.13-.52-.13-.26 0-.51.13-.25.12-.44.42-.19.31-.3.82-.11.52-.11 1.3 0 .79.11 1.31.11.51.3.81.19.31.44.43t.51.12q.27 0 .52-.12t.44-.43q.2-.3.31-.81.12-.52.12-1.31"/></svg>